<?xml version="1.0" standalone="no"?><!DOCTYPE svg PUBLIC "-//W3C//DTD SVG 1.1//EN" "http://www.w3.org/Graphics/SVG/1.1/DTD/svg11.dtd"><svg t="1762396888446" class="icon" viewBox="0 0 1024 1024" version="1.1" xmlns="http://www.w3.org/2000/svg" p-id="33228" xmlns:xlink="http://www.w3.org/1999/xlink" width="32" height="32"><path d="M555.626 1023.9h0.1c64.63 0 126.35-19.498 178.637-56.394 52.487-36.997 90.824-88.192 110.995-148.086l0.502-1.5 2.208-6.8 127.956-405.86c16.66-48.295-8.932-101.49-57.304-118.688l-0.301-0.1c-37.534-12.899-78.28-0.2-102.967 28.797l16.057-113.189c4.215-23.897-1.505-49.195-15.656-69.493-14.451-20.598-35.827-34.297-60.315-38.596-24.688-4.4-49.677 1.3-70.45 16.098-16.66 11.8-28.803 27.998-35.126 46.696l-0.2-64.794C649.761 41.296 607.611 0 555.725 0c-51.483 0-93.533 40.896-93.934 91.191L455.97 218.18l-7.627-43.096c-3.212-23.998-15.556-45.696-34.824-61.094C393.649 98.09 369.06 90.99 344.172 93.79l-0.401 0.1c-24.788 3.2-46.867 15.798-62.322 35.396-15.355 19.598-22.28 44.096-19.37 68.794l0.202 1.1 53.791 350.165c0.402 3 0.803 6.3 1.305 9.8 1.505 10.798 5.219 37.696 3.914 48.995-1.606-1.3-3.713-3.5-5.82-7l-72.76-131.487-1.104-1.6c-18.165-25.197-48.874-41.996-82.193-44.895-31.512-2.8-61.62 7.299-82.594 27.597C55.243 471.754 43.3 497.151 42.497 524.149c-0.802 24.897 7.527 50.795 24.688 76.892 4.617 7.7 47.269 79.193 96.645 153.985 95.038 143.886 133.977 178.783 154.952 191.482 34.122 24.697 71.655 43.795 111.698 56.994 40.444 13.299 82.594 20.198 125.246 20.498l-0.1-0.1zM784.04 800.322c-32.616 95.49-124.142 159.484-228.213 159.584-72.559-0.5-141.906-23.297-200.515-65.993l-1.304-1-1.405-0.8c-8.23-4.8-42.15-31.397-135.283-172.383-51.182-77.493-94.938-151.286-95.34-151.985l-0.903-1.4c-24.688-37.197-13.548-56.195 0.502-69.893 7.527-7.3 19.269-10.8 32.115-9.7 14.05 1.2 27.197 7.8 34.723 17.299l71.154 128.687 0.2 0.3c16.76 28.497 44.158 43.796 71.455 39.896 22.58-3.2 35.928-18.898 40.344-23.997l0.502-0.5c18.064-20.698 15.054-53.695 8.932-98.19-0.502-3.4-0.904-6.6-1.305-9.5l-0.1-0.8-53.792-349.766c-1.606-15.998 9.935-30.597 25.892-32.796 15.656-1.7 31.111 10.599 33.018 26.397l0.2 1.7 51.584 291.871 0.904 2.6c6.623 18.298 22.78 28.997 40.343 26.498 13.348-1.9 29.405-12.6 31.011-36.497v-0.7L526.02 92.791v-0.8c0-15.498 13.348-27.997 29.706-27.997 16.459 0 29.807 12.599 29.807 27.997v0.1l1.204 377.963c-0.502 18.798 12.946 34.597 31.11 36.297 18.366 1.7 34.022-11.1 36.932-29.898l54.896-294.87c2.91-15.9 19.168-27.298 34.724-24.598h0.1c7.527 1.3 14.15 5.6 18.667 12.098 4.616 6.6 6.422 14.6 5.118 22.098l-0.2 1.3-49.276 348.066v2.2c0 24.098 15.053 35.397 28 37.896 12.745 2.4 30.709-2.5 39.139-24.297l0.1-0.2 73.16-190.282c5.62-15.498 23.083-24.197 38.137-19.098 15.254 5.5 23.283 22.398 17.964 37.696l-0.301 1-128.057 406.16-2.91 8.7z" fill="#000000" p-id="33229"></path></svg>